Coordinates
version=1
nRows=25
nColumns=33
inDegrees=yes

Units are S.I. units (second, meters, Newtons, ...)
Angles are in degrees.

endheader
time	ground_thorax_rot_x	ground_thorax_rot_y	ground_thorax_rot_z	ground_thorax_tx	ground_thorax_ty	ground_thorax_tz	clav_prot_r	clav_elev_r	scapula_abduction_r	scapula_elevation_r	scapula_upward_rot_r	scapula_winging_r	shoulder_elv_r	plane_of_elev_r	axial_rot_r	elbow_flexion_r	pro_sup_r	wrist_flex_r	wrist_dev_r	clav_prot_l	clav_elev_l	scapula_abduction_l	scapula_elevation_l	scapula_upward_rot_l	scapula_winging_l	shoulder_elv_l	plane_of_elev_l	axial_rot_l	elbow_flexion_l	pro_sup_l	wrist_flex_l	wrist_dev_l	
6.0200	90.000000	-90.000000	-90.000000	10.611912	776.606826	-39.141580	-45.000000	3.072995	-39.712081	18.203651	-45.000000	-2269.639861	-1513.885721	146.110047	150.512091	1.105736	177.860435	13.331956	11.963540	12.998589	45.000000	-45.000000	-45.000000	15.703568	-3932.363532	-2416.695032	10.658821	-81.472702	350.313209	-318.494778	12.137776	-14.978700	
6.0300	90.000000	-90.000000	-90.000000	7.343631	777.237407	-39.180107	-45.000000	2.825708	-39.411543	17.988384	-45.000000	-2269.621543	-1513.716424	146.049346	150.993211	1.084058	178.083265	13.367742	12.022217	12.588310	45.000000	-45.000000	-45.000000	15.932371	-3932.534769	-2416.636029	10.680045	-82.046003	350.339618	-318.478021	12.121271	-15.036756	
6.0400	90.000000	-90.000000	-90.000000	4.056712	777.931361	-39.219033	-45.000000	2.569661	-39.112445	17.765210	-45.000000	-2269.591655	-1513.545082	146.000311	151.458746	1.057814	178.265484	13.403161	12.091385	12.170832	45.000000	-45.000000	-45.000000	16.149796	-3932.708286	-2416.563921	10.702726	-82.618127	350.372540	-318.458908	12.101499	-15.103243	
6.0500	90.000000	-90.000000	-90.000000	0.756167	778.689779	-39.257245	-45.000000	2.307890	-38.813323	17.528216	-45.000000	-2269.572598	-1513.371577	145.947456	151.908072	1.029190	178.397718	13.439230	12.166467	11.749875	45.000000	-45.000000	-45.000000	16.373355	-3932.880085	-2416.502502	10.732141	-83.185297	350.405153	-318.439391	12.080989	-15.163343	
6.0600	90.000000	-90.000000	-90.000000	-2.552225	779.513265	-39.294693	-45.000000	2.045481	-38.519986	17.284722	-45.000000	-2269.541509	-1513.192951	145.905421	152.340721	0.997312	178.476823	13.473183	12.249104	11.321525	45.000000	-45.000000	-45.000000	16.587530	-3933.049503	-2416.431674	10.765066	-83.753600	350.442214	-318.425564	12.061973	-15.226860	
6.0700	90.000000	-90.000000	-90.000000	-5.861789	780.401972	-39.332378	-45.000000	1.792016	-38.233788	17.032636	-45.000000	-2269.511873	-1513.005633	145.861015	152.757899	0.959273	178.500888	13.506961	12.332804	10.889633	45.000000	-45.000000	-45.000000	16.799281	-3933.210020	-2416.365371	10.808814	-84.310457	350.479397	-318.421397	12.043905	-15.279335	
6.0800	90.000000	-90.000000	-90.000000	-9.165561	781.355670	-39.371545	-45.000000	1.549191	-37.957975	16.778961	-45.000000	-2269.466856	-1512.808903	145.824167	153.160467	0.912590	178.472664	13.539931	12.418655	10.451842	45.000000	-45.000000	-45.000000	16.997812	-3933.362498	-2416.290638	10.860265	-84.863384	350.520023	-318.433052	12.028808	-15.328721	
6.0900	90.000000	-90.000000	-90.000000	-12.455989	782.373667	-39.413465	-45.000000	1.309892	-37.688567	16.520194	-45.000000	-2269.426010	-1512.608544	145.784235	153.549013	0.860947	178.395901	13.571925	12.503222	10.013401	45.000000	-45.000000	-45.000000	17.192656	-3933.513728	-2416.220783	10.915495	-85.399099	350.556967	-318.462965	12.017666	-15.365703	
6.1000	90.000000	-90.000000	-90.000000	-15.725613	783.454836	-39.458484	-45.000000	1.067163	-37.423329	16.261132	-45.000000	-2269.382135	-1512.409339	145.750073	153.917428	0.809551	178.276567	13.601342	12.589348	9.574605	45.000000	-45.000000	-45.000000	17.381104	-3933.668283	-2416.148777	10.967291	-85.926343	350.590552	-318.513340	12.014168	-15.399109	
6.1100	90.000000	-90.000000	-90.000000	-18.966698	784.597740	-39.506184	-45.000000	0.818193	-37.159431	15.999385	-45.000000	-2269.347176	-1512.216406	145.715607	154.265431	0.760672	178.119028	13.628445	12.674467	9.138308	45.000000	-45.000000	-45.000000	17.570233	-3933.829617	-2416.083236	11.013815	-86.434670	350.616849	-318.583035	12.018127	-15.424719	
6.1200	90.000000	-90.000000	-90.000000	-22.171696	785.800732	-39.555364	-45.000000	0.551040	-36.893583	15.736290	-45.000000	-2269.320731	-1512.033042	145.684656	154.590737	0.719709	177.927479	13.651829	12.761352	8.706263	45.000000	-45.000000	-45.000000	17.759584	-3934.002092	-2416.020991	11.047838	-86.929390	350.635619	-318.669224	12.031268	-15.449756	
6.1300	90.000000	-90.000000	-90.000000	-25.333089	787.062141	-39.604765	-45.000000	0.265842	-36.625239	15.470569	-45.000000	-2269.307946	-1511.862118	145.655148	154.890393	0.688230	177.705007	13.670660	12.849046	8.280188	45.000000	-45.000000	-45.000000	17.951922	-3934.186892	-2415.966047	11.069416	-87.406161	350.645889	-318.766203	12.052413	-15.474430	
6.1400	90.000000	-90.000000	-90.000000	-28.444214	788.380581	-39.653016	-45.000000	-0.041953	-36.357588	15.200637	-45.000000	-2269.306885	-1511.702217	145.628321	155.164861	0.667434	177.454988	13.684802	12.938377	7.860926	45.000000	-45.000000	-45.000000	18.144956	-3934.383772	-2415.914699	11.078176	-87.869300	350.650382	-318.866711	12.080723	-15.504513	
6.1500	90.000000	-90.000000	-90.000000	-31.499380	789.755190	-39.698883	-45.000000	-0.359509	-36.091433	14.931098	-45.000000	-2269.312345	-1511.556541	145.604489	155.413785	0.650464	177.178794	13.695903	13.027385	7.448247	45.000000	-45.000000	-45.000000	18.335873	-3934.591067	-2415.870545	11.078554	-88.315788	350.651391	-318.962984	12.114832	-15.542472	
6.1600	90.000000	-90.000000	-90.000000	-34.493988	791.185350	-39.741160	-45.000000	-0.692268	-35.827644	14.653709	-45.000000	-2269.328873	-1511.420393	145.584782	155.644757	0.641412	176.878504	13.702570	13.115568	7.043867	45.000000	-45.000000	-45.000000	18.524964	-3934.810272	-2415.830190	11.070110	-88.748580	350.649514	-319.046823	12.152869	-15.590658	
6.1700	90.000000	-90.000000	-90.000000	-37.424650	792.670389	-39.778571	-45.000000	-1.011509	-35.571990	14.379154	-45.000000	-2269.340777	-1511.291438	145.571054	155.854643	0.629045	176.552048	13.706887	13.201914	6.645341	45.000000	-45.000000	-45.000000	18.704689	-3935.029010	-2415.792357	11.065632	-89.172877	350.649347	-319.112434	12.190256	-15.648337	
6.1800	90.000000	-90.000000	-90.000000	-40.288889	794.209066	-39.809658	-45.000000	-1.313927	-35.329488	14.105408	-45.000000	-2269.347115	-1511.163490	145.560353	156.056083	0.611484	176.195629	13.709268	13.284995	6.252273	45.000000	-45.000000	-45.000000	18.871397	-3935.241289	-2415.751450	11.069236	-89.591204	350.653206	-319.156014	12.222307	-15.713336	
6.1900	90.000000	-90.000000	-90.000000	-43.085157	795.799415	-39.832783	-45.000000	-1.570086	-35.105200	13.845637	-45.000000	-2269.331756	-1511.033842	145.553484	156.248235	0.579474	175.801243	13.710713	13.363892	5.862211	45.000000	-45.000000	-45.000000	19.018079	-3935.433702	-2415.706475	11.092881	-90.006932	350.664247	-319.177537	12.245554	-15.782504	
6.2000	90.000000	-90.000000	-90.000000	-45.812396	797.438626	-39.846256	-45.000000	-1.800248	-34.897570	13.588258	-45.000000	-2269.306505	-1510.896119	145.546655	156.443346	0.539731	175.364866	13.709709	13.438507	5.477674	45.000000	-45.000000	-45.000000	19.146990	-3935.609801	-2415.652695	11.130615	-90.417620	350.681086	-319.178758	12.259033	-15.854181	
6.2100	90.000000	-90.000000	-90.000000	-48.470246	799.123534	-39.848576	-45.000000	-1.998379	-34.707185	13.340021	-45.000000	-2269.267154	-1510.752374	145.539321	156.636432	0.491370	174.883830	13.706176	13.510102	5.099342	45.000000	-45.000000	-45.000000	19.258805	-3935.770504	-2415.593493	11.182192	-90.820953	350.702320	-319.163859	12.264898	-15.927939	
6.2200	90.000000	-90.000000	-90.000000	-51.058563	800.850864	-39.838705	-45.000000	-2.202153	-34.524767	13.089940	-45.000000	-2269.233303	-1510.610265	145.528222	156.831992	0.444064	174.362251	13.699700	13.579004	4.731978	45.000000	-45.000000	-45.000000	19.362588	-3935.934552	-2415.532237	11.228312	-91.208394	350.722277	-319.137180	12.270030	-16.007619	
6.2300	90.000000	-90.000000	-90.000000	-53.577601	802.617849	-39.816324	-45.000000	-2.402430	-34.347286	12.842955	-45.000000	-2269.201540	-1510.475105	145.518069	157.022375	0.402055	173.806072	13.688612	13.645313	4.376144	45.000000	-45.000000	-45.000000	19.462231	-3936.105071	-2415.474673	11.268436	-91.578079	350.738243	-319.103442	12.278987	-16.094397	
6.2400	90.000000	-90.000000	-90.000000	-56.027521	804.422335	-39.782006	-45.000000	-2.621184	-34.167617	12.590697	-45.000000	-2269.183009	-1510.347410	145.508316	157.208616	0.370522	173.225171	13.673485	13.708005	4.033835	45.000000	-45.000000	-45.000000	19.561469	-3936.287834	-2415.420411	11.293553	-91.926449	350.747958	-319.066551	12.294140	-16.189863	
6.2500	90.000000	-90.000000	-90.000000	-58.408638	806.263135	-39.737311	-45.000000	-2.838397	-33.990985	12.340127	-45.000000	-2269.166858	-1510.225657	145.501204	157.384385	0.344990	172.627124	13.655915	13.766785	3.702794	45.000000	-45.000000	-45.000000	19.656361	-3936.475595	-2415.370389	11.313117	-92.255711	350.753357	-319.029958	12.313334	-16.292054	
6.2600	90.000000	-90.000000	-90.000000	-60.720927	808.139730	-39.684745	-45.000000	-3.064777	-33.813449	12.092073	-45.000000	-2269.155716	-1510.112466	145.493936	157.548296	0.319154	172.019084	13.640496	13.821240	3.382979	45.000000	-45.000000	-45.000000	19.745837	-3936.668775	-2415.324198	11.323075	-92.563429	350.754792	-318.995974	12.336065	-16.401372	
